<svg width="1492" height="338" viewBox="0 0 1492 338" fill="none" xmlns="http://www.w3.org/2000/svg">
<path d="M269.172 0.30127H110.527C99.377 0.30127 89.0743 6.24959 83.4995 15.9056L4.18104 153.291C-1.3936 162.947 -1.39369 174.843 4.18085 184.498L83.4996 321.888C89.0743 331.544 99.3771 337.492 110.527 337.492H269.172C280.322 337.492 290.624 331.544 296.199 321.888L375.518 184.498C381.092 174.843 381.092 162.946 375.518 153.291L296.199 15.9056C290.624 6.24964 280.322 0.30127 269.172 0.30127ZM210.118 180.597H350.745L280.434 302.385L210.118 180.597ZM350.745 157.192H214.622C203.473 157.192 193.17 151.244 187.595 141.588L119.534 23.7062H255.659C266.809 23.7062 277.112 29.6545 282.686 39.3105L350.745 157.192ZM169.579 157.192H28.954L99.2651 35.4084L169.579 157.192ZM28.9538 180.597H165.074C176.223 180.597 186.526 186.545 192.101 196.201L260.164 314.088H124.04C112.89 314.088 102.587 308.139 97.0123 298.483L28.9538 180.597Z" fill="#A1FFFF"/>
<path d="M1359.16 260.768V77.0261H1392.34V260.768H1359.16ZM1374.99 260.768V234.483H1491.36V260.768H1374.99ZM1374.99 179.105V153.33H1482.42V179.105H1374.99ZM1374.99 103.311V77.0261H1488.55V103.311H1374.99Z" fill="black"/>
<path d="M1255.78 263.32C1230.94 263.32 1212.14 256.259 1199.38 242.139C1186.62 228.018 1180.24 207.772 1180.24 181.402V77.0261H1213.42V186.25C1213.42 203.093 1217.16 215.683 1224.65 224.02C1232.13 232.186 1242.6 236.269 1256.04 236.269C1269.48 236.269 1279.94 232.186 1287.43 224.02C1294.91 215.683 1298.65 203.178 1298.65 186.506V77.0261H1331.83V181.657C1331.83 207.857 1325.37 228.018 1312.44 242.139C1299.68 256.259 1280.79 263.32 1255.78 263.32Z" fill="black"/>
<path d="M1067 263.32C1048.45 263.32 1032.12 259.322 1018 251.326C1004.05 243.159 993.162 231.931 985.336 217.64C977.51 203.349 973.597 186.846 973.597 168.131C973.597 149.587 977.51 133.34 985.336 119.389C993.162 105.268 1003.97 94.2944 1017.75 86.4684C1031.7 78.4722 1047.52 74.4741 1065.21 74.4741C1083.25 74.4741 1099.15 78.4722 1112.93 86.4684C1126.88 94.2944 1137.77 105.268 1145.6 119.389C1153.43 133.51 1157.34 149.842 1157.34 168.387C1157.34 180.806 1155.3 192.545 1151.21 203.604C1147.13 214.492 1140.84 223.764 1132.33 231.42C1123.82 239.076 1112.76 244.605 1099.15 248.008L1067 263.32ZM1065.21 237.545C1076.78 237.545 1086.9 234.738 1095.58 229.123C1104.43 223.339 1111.32 215.173 1116.25 204.625C1121.19 194.076 1123.65 181.827 1123.65 167.876C1123.65 154.606 1121.19 143.037 1116.25 133.169C1111.49 123.132 1104.68 115.391 1095.84 109.946C1087.16 104.332 1076.95 101.525 1065.21 101.525C1053.64 101.525 1043.44 104.332 1034.59 109.946C1025.91 115.391 1019.19 123.047 1014.43 132.914C1009.66 142.782 1007.28 154.436 1007.28 167.876C1007.28 181.997 1009.66 194.332 1014.43 204.88C1019.36 215.258 1026.17 223.339 1034.84 229.123C1043.69 234.738 1053.81 237.545 1065.21 237.545ZM1067 263.32L1065.47 240.352L1166.02 234.483V260.768C1155.3 260.768 1145.85 260.853 1137.69 261.023C1129.69 261.363 1122.12 261.704 1114.98 262.044C1108 262.384 1100.68 262.639 1093.03 262.809C1085.37 263.15 1076.7 263.32 1067 263.32Z" fill="black"/>
<path d="M815.037 260.768V77.0261H892.617C905.717 77.0261 917.116 79.2378 926.813 83.6613C936.511 88.0847 943.912 94.2944 949.015 102.291C954.29 110.287 956.927 119.644 956.927 130.362C956.927 140.91 954.29 150.183 949.015 158.179C943.912 166.175 936.511 172.385 926.813 176.808C917.116 181.232 905.717 183.443 892.617 183.443H841.067V158.179H891.596C902.314 158.179 910.481 155.712 916.095 150.778C921.88 145.844 924.772 139.039 924.772 130.362C924.772 121.686 921.965 115.05 916.35 110.457C910.736 105.693 902.485 103.311 891.596 103.311H848.213V260.768H815.037ZM920.178 260.768L838.26 166.855H875.519L966.114 260.768H920.178Z" fill="black"/>
<path d="M701.232 263.32C687.962 263.32 675.713 261.023 664.484 256.43C653.255 251.836 643.473 245.286 635.136 236.779C626.97 228.273 620.59 218.235 615.996 206.666C611.573 194.927 609.361 182.082 609.361 168.131C609.361 149.587 613.274 133.34 621.1 119.389C628.926 105.268 639.73 94.2944 653.51 86.4684C667.461 78.4722 683.283 74.4741 700.977 74.4741C719.011 74.4741 734.918 78.4722 748.699 86.4684C762.65 94.2944 773.538 105.268 781.364 119.389C789.19 133.51 793.103 149.842 793.103 168.387C793.103 182.337 790.806 195.097 786.213 206.666C781.789 218.235 775.409 228.273 767.073 236.779C758.907 245.286 749.209 251.836 737.981 256.43C726.752 261.023 714.502 263.32 701.232 263.32ZM700.977 236.269C712.546 236.269 722.669 233.377 731.345 227.592C740.192 221.808 747.083 213.812 752.016 203.604C756.95 193.226 759.417 181.317 759.417 167.876C759.417 154.606 756.95 143.037 752.016 133.169C747.253 123.132 740.447 115.391 731.601 109.946C722.924 104.332 712.716 101.525 700.977 101.525C689.408 101.525 679.2 104.332 670.353 109.946C661.677 115.391 654.957 123.047 650.193 132.914C645.429 142.782 643.047 154.436 643.047 167.876C643.047 181.487 645.429 193.396 650.193 203.604C655.127 213.812 661.932 221.808 670.609 227.592C679.455 233.377 689.578 236.269 700.977 236.269Z" fill="black"/>
<path d="M514.85 260.768V103.311H453.858V77.0259H609.018V103.311H548.026V260.768H514.85Z" fill="black"/>
</svg>
